<svg version="1" xmlns="http://www.w3.org/2000/svg" width="512" height="512" viewBox="0 0 384.000000 384.000000"><path d="M189.7 68.6c-.1.1-3.4.4-7.3.7-12.8 1.1-24.5 4.2-34.3 9-5.6 2.7-5.9 2.9-13 9.4-15.5 14.2-16.5 37.1-2.4 51.8 1.6 1.6 5.2 4.9 8.1 7.1l5.1 4.1-2.7 2.1c-1.5 1.2-4 3.2-5.6 4.4-11.2 8.8-16.8 19.7-16.7 32.8.1 13 3.5 21 12.5 29.3 3.9 3.6 15.3 9.8 20.6 11.2 1.4.3 3.4 1 4.5 1.5 3 1.3 23.7 6.5 29.6 7.4 2 .3 4.8 1 6.2 1.5 1.4.5 2.7.8 2.9.5.3-.2 1.8 0 3.4.5 1.6.5 5.4 1.6 8.5 2.6 11.2 3.2 21.1 11.2 22.6 18.1 1.1 4.8.5 13-1 16-3.2 6.1-13.2 13.4-20.4 14.7-1 .2-2.9.7-4.3 1-8 2-30 2.8-36.5 1.4-1.6-.4-4.3-.9-6-1.3-8.4-1.7-20.3-6.8-27.6-12-5.2-3.7-10.5-6.5-11-5.9-.2.2-.3 5.5-.1 11.7l.3 11.4 5.3 3.1c8.8 5.4 19.9 9.2 30.9 10.8 2.7.3 5.9.9 7 1.1 3.3.8 26.6.7 31.7-.1 7.8-1.1 23.5-4.7 24.5-5.5.6-.5 1.3-.9 1.8-.9 3.3-.2 15.1-7.6 20.2-12.6 11.3-11.1 15.4-25.7 11.4-40.4-1.7-6.1-4.4-10.4-11.8-18-3.3-3.5-6.1-6.6-6.1-7 .1-.3 3.1-2.7 6.9-5.3 7.8-5.3 12-11 15.2-20.6 4.2-12.5 2.4-24.7-5.1-34.5-2.8-3.7-10.5-10.7-11.7-10.7-.7 0-1.3-.4-1.3-.9 0-1.1-12.9-7.5-20.5-10.1-5.5-1.9-15.5-4.5-21.5-5.6-1.4-.3-9.9-2.3-18.9-4.5-16-3.9-22.8-6.2-24.3-8.3-.4-.6-.8-.7-.8-.3 0 1.7-6.7-5.9-7.9-9-2-4.9-1-14.3 1.9-18.6 4.1-6 13.3-11 24-13.2 7.2-1.5 27.4-1.4 34.5.1 3.9.8 7.7 1.7 8.5 2.1.8.3 2.2.7 3 .8 3.2.5 10.7 3.7 18.4 7.9 4.5 2.4 9.7 5.2 11.6 6.2 1.9 1.1 3.8 2.3 4.1 2.8.4.5 1.2.7 1.9.4 1-.3 1.4-3.3 1.4-10.9l.2-10.4-3.8-2.7c-8.3-6.1-22.4-12-31.8-13.4-1.9-.3-4.1-.7-4.8-.9-2.6-.9-28.6-2.6-29.5-1.9zm-9.3 89.6c.3-.3.6-.1.6.4s1 1 2.3 1.1c3.3.2 6.7.9 11.7 2.4 2.5.7 4.8 1.2 5.2 1.1 1.8-.4 14.1 4.4 19.9 7.8 18.7 11 23.5 28.7 11.6 42.6-8 9.2-17.8 10.1-41.2 3.9-23.6-6.2-28.7-8.4-35.5-15.6-9.5-10-9.6-27.5-.2-36.5 4.5-4.4 13.5-8.1 17.2-7.1 1.1.3 2 .1 2-.3 0-.5 1.3-.5 2.9 0 1.6.4 3.2.6 3.5.2zM91 70.8c0 .4-1 1.9-2.2 3.2-1.3 1.4-3.4 4.1-4.8 6-1.3 1.9-2.8 3.9-3.2 4.5-.5.5-7.1 9.4-14.7 19.7-7.6 10.3-14.8 20-15.9 21.5-2.2 2.9-28.9 39-37.1 50.1-2.5 3.5-5.2 6.9-5.8 7.7-.7.7-1.3 1.8-1.3 2.4 0 .6-.4 1.1-.8 1.1-.5 0-1.4 1-1.9 2.2-.9 1.9-.5 2.9 1.9 6 1.6 2.1 2.7 3.8 2.4 3.8-.3 0 .2.8 1.2 1.8 1.7 1.7 23.8 31.8 25.7 35 .6.9 1.2 1.9 1.5 2.2.3.3 1.8 2.3 3.5 4.5 1.6 2.2 3.3 4.4 3.8 5 .4.5 4.7 6.4 9.5 13.1 4.8 6.7 9.5 13.2 10.4 14.5 5.4 7.3 15.2 20.9 17.6 24.2 1.5 2.1 3.2 4.4 3.7 5 3.3 4 6.5 8.8 6.5 9.9.1.9.3.9.9-.2.6-1.2.9-50.1.2-53.2 0-.4-.7-1.3-1.4-2s-2.4-2.9-3.7-4.8c-1.3-1.9-2.8-4-3.2-4.5-.5-.6-4-5.3-7.8-10.5s-7.3-10-7.8-10.5c-.4-.6-3.7-5.1-7.2-10-3.6-5-6.9-9.5-7.5-10.1-.5-.6-1.7-2.2-2.5-3.4-.8-1.2-3.1-4.3-5.1-6.9-5.3-6.8-5.3-7.5-1.3-12.9 5.3-6.9 6.9-9.1 11.3-15.2 2.2-3 4.4-6 4.8-6.5.5-.6 5.1-6.9 10.3-14 5.2-7.2 9.9-13.5 10.5-14.2.5-.6 3.3-4.3 6-8.3l5-7.1.1-25c0-13.7-.4-24.9-.8-24.9s-.8.3-.8.8zM291 99.4v25.9l3.6 4.3c1.9 2.4 3.3 4.4 3 4.4-.3 0 .2.8 1.2 1.8.9 1 2.6 3.1 3.7 4.6 1.1 1.6 2.6 3.4 3.3 4.1.6.8 1.2 1.7 1.2 2 0 .4 1.8 2.9 4 5.5s4 5.2 4 5.8c0 .6.3 1.2.8 1.4 1.2.5 12.2 15.6 12.2 16.8 0 .5.5 1 1 1 .6 0 1.4.8 1.7 1.7.4.9 1.3 2.4 2.1 3.2.7.9 3.4 4.2 5.8 7.5 3.7 5 4.2 6.1 3.2 7.5-.7.9-1.6 2-2 2.6-2.2 2.9-8.5 11.6-9.8 13.5-1.8 2.6-2.7 3.8-8.2 11.2-2.4 3.1-5 6.6-5.8 7.8-1.5 2.2-4.8 6.6-6.3 8.5-.4.5-4 5.5-8 11-3.9 5.5-8 10.9-8.9 11.9-1.6 1.8-1.8 4.6-1.8 29.5.1 21.4.3 27.2 1.2 25.6 2.9-4.9 51.9-71.8 53.1-72.3.4-.2.7-1 .7-1.8s.5-1.4 1-1.4c.6 0 1-.5 1-1.1 0-.6 1.8-3.3 4-5.9 2.2-2.6 4-5.3 4-5.9 0-.6.3-1.1.8-1.1.4-.1 2.3-2.3 4.2-5.1 4.4-6.2 13.6-18.9 15.4-21 .7-.8 2.1-2.9 3.1-4.6l1.8-3-3.4-4.8c-1.9-2.6-3.8-5.5-4.4-6.4-.5-.8-1.8-2.2-2.7-2.9-1-.7-1.8-1.9-1.8-2.7 0-.7-.3-1.5-.7-1.7-1.3-.5-21.3-27.7-21.3-28.8 0-.6-.4-.8-1-.5-.5.3-1 0-1-.8 0-.7-.8-2.2-1.8-3.3-.9-1-4.2-5.3-7.2-9.4-3-4.1-6-8.2-6.7-9-4.7-6-8.3-11.2-8.3-12 0-.6-.3-1-.7-1-.5 0-2.3-2.3-4.2-5-1.9-2.8-3.8-5-4.3-5-.4 0-.8-.6-.8-1.3 0-.8-1.1-2.4-2.5-3.7-1.4-1.3-2.3-2.5-2-2.8.2-.2-.3-1.1-1.1-1.9-.8-.9-4-5-7.1-9.2-3-4.2-6-8-6.4-8.6-.5-.5-.9 10.2-.9 24.9z"/></svg>